<svg width="1007" height="186" viewBox="0 0 1007 186" fill="none" xmlns="http://www.w3.org/2000/svg">
<path d="M179 86V106H183H187V89.3333V72.6667H197.667H208.333V89.3333V106H211.667H215V86V66H197H179V86Z" fill="#F3F3F3"/>
<path d="M496.333 67.8667C496.333 74 507.8 76.4 511.533 71.0667C512.733 69.4667 513.667 67.6 513.667 67.0667C513.667 65.2 508.6 66 507.8 68C507.4 69.0667 505.933 70 504.467 70C503.133 70 501.667 69.0667 501.133 68C500.2 65.4667 496.333 65.3333 496.333 67.8667Z" fill="#F3F3F3"/>
<path d="M968.333 70C968.333 72.5333 973.667 76.6667 976.733 76.6667C980.067 76.6667 984.333 72.9333 984.333 70.2667C984.333 67.8667 982.467 68.4 980.6 71.3333C979.667 72.8 978.067 74 977 74C975.933 74 973.933 72.8 972.733 71.3333C970.2 68.4 968.333 67.8667 968.333 70Z" fill="#F3F3F3"/>
<path d="M547 89.3333C547 99.6 547.533 106 548.333 106C549.133 106 549.667 99.6 549.667 89.3333C549.667 79.0667 549.133 72.6667 548.333 72.6667C547.533 72.6667 547 79.0667 547 89.3333Z" fill="#F3F3F3"/>
<path d="M228.867 78C222.067 80.6667 221.267 97.4667 227.667 103.067C230.733 105.733 232.467 106 240.2 105.733C247.933 105.333 249 105.067 249.4 102.533C249.8 99.8667 249.267 99.7333 243.267 100.4C236.2 101.067 231 99.2 231 96C231 94.4 233.133 94 241 94C250.733 94 251 93.8667 251 90.8C251 86.2667 248.6 80.5333 245.933 78.5333C243.4 76.5333 233.133 76.2667 228.867 78ZM242.733 85.6C243.133 88.4 242.6 88.6667 237.133 88.6667C233 88.6667 231 88.1333 231 86.9333C231 83.8667 234.2 81.8667 238.333 82.2667C241.267 82.5333 242.467 83.4667 242.733 85.6Z" fill="#F3F3F3"/>
<path d="M255 80C255 81.8667 255.4 83.2 256.067 83.2C256.6 83.0667 258.333 83.0667 260.067 83.2C262.867 83.3333 263 83.8667 263 94.6667V106H267H270.867L271.267 94.4L271.667 82.8L275.667 82.6667C278.733 82.6667 279.8 82 280.067 79.6C280.467 76.8 280.2 76.6667 267.8 76.6667C255 76.6667 255 76.6667 255 80Z" fill="#F3F3F3"/>
<path d="M287 98.2667V119.467L290.6 119.067C293.933 118.667 294.067 118.267 294.067 111.867L293.933 104.933L301.533 105.6C308.2 106.267 309.267 106 312.2 102.933C315 99.8667 315.267 98.5333 314.733 90.1333C314.067 77.8667 312.733 76.8 298.067 76.9333L287 77.0667V98.2667ZM305.8 84.1333C308.067 86.8 307.933 95.8667 305.667 98.6667C303.533 101.2 298.467 101.2 295.8 98.6667C293.533 96.2667 293.8 87.0667 296.333 84C298.467 81.3333 303.533 81.4667 305.8 84.1333Z" fill="#F3F3F3"/>
<path d="M327.667 78.2667C323 80.8 321.667 83.7333 321.667 91.6C321.667 98.1333 322.2 100 325 102.667C327.667 105.467 329.533 106 336.067 106C347.533 106 350.067 103.6 350.733 92.2667C351.267 84 351 83.2 347.667 80.1333C344.6 77.3333 342.6 76.6667 337.133 76.6667C333.4 76.6667 329.133 77.4667 327.667 78.2667ZM340.867 84.1333C343.267 86.5333 343.667 94.2667 341.667 98.1333C339.933 101.067 335.267 101.467 331.667 98.8C328.6 96.6667 328.2 87.3333 331 84C333.133 81.3333 338.2 81.4667 340.867 84.1333Z" fill="#F3F3F3"/>
<path d="M359 91.3333V106H369C377.267 106 379.533 105.467 381.667 103.333C384.333 100.667 385.267 93.4667 383.133 92.1333C382.467 91.7333 382.2 88.8 382.6 85.7333C383.667 78.2667 381.267 76.6667 368.733 76.6667H359V91.3333ZM375.667 85.3333C375.667 87.4667 374.6 88.1333 370.733 88.4C366.067 88.8 365.667 88.5333 365.667 85.3333C365.667 82.1333 366.067 81.8667 370.733 82.2667C374.6 82.5333 375.667 83.2 375.667 85.3333ZM376.867 95.2C378.733 98.1333 375.933 100.667 370.867 100.667C366.2 100.667 365.667 100.267 365.667 97.3333C365.667 94.4 366.2 94 370.867 94C373.8 94 376.467 94.5333 376.867 95.2Z" fill="#F3F3F3"/>
<path d="M396.6 78C390.067 80.6667 387.933 93.8667 393 101.467C397 107.6 414.333 108.533 414.333 102.667C414.333 100.4 413.533 100.133 408.067 100.533C402.6 100.8 401.533 100.4 399.667 97.4667C396.733 93.0667 397.933 85.3333 401.933 83.2C403.4 82.4 406.733 82 409.133 82.4C413.4 83.0667 416.067 80.8 414.2 77.8667C413.267 76.2667 400.6 76.4 396.6 78Z" fill="#F3F3F3"/>
<path d="M421.667 91.3333V106H425.667C429.4 106 429.667 105.733 429.667 100.667C429.667 97.2 430.333 95.3333 431.4 95.3333C432.333 95.3333 434.467 97.7333 436.333 100.667C439.133 105.067 440.333 106 443.933 106C446.333 106 448.333 105.867 448.333 105.6C448.333 105.333 445.933 101.867 443 98C440.067 94.1333 437.667 90.2667 437.667 89.4667C437.667 88.6667 440.2 85.4667 443.267 82.4L448.867 76.6667H444.067C440.067 76.6667 438.467 77.6 434.467 82.2667L429.667 87.8667V82.2667C429.667 76.9333 429.533 76.6667 425.667 76.6667H421.667V91.3333Z" fill="#F3F3F3"/>
<path d="M453.667 91.3333V106H457.533C460.867 106 462.467 104.667 467.933 97.0667L474.333 88L474.733 97.0667C475.133 105.6 475.267 106 478.333 106H481.667V91.3333V76.6667H478.067C475 76.6667 473.267 78.2667 468.333 85.6L462.333 94.4L461.933 85.4667C461.533 76.6667 461.533 76.6667 457.667 76.6667H453.667V91.3333Z" fill="#F3F3F3"/>
<path d="M491 91.3333V106H494.733C497.667 106 499.4 104.533 504.333 97.2L510.333 88.2667L510.733 97.2C511.133 106 511.133 106 515 106H519V91.3333V76.6667H515.133C511.8 76.6667 510.2 78.1333 504.733 85.6L498.333 94.6667L497.933 85.6C497.533 77.0667 497.4 76.6667 494.333 76.6667H491V91.3333Z" fill="#F3F3F3"/>
<path d="M578.733 80.4C578.467 80.9333 578.467 86.9333 578.733 93.6C579.133 103.2 579.667 106 581.133 106C582.6 106 583 103.6 583 94.6667V83.3333H589.667C597.8 83.3333 598.733 80.6667 590.733 80.5333C587.533 80.5333 583.667 80.2667 582.067 79.8667C580.467 79.6 579 79.8667 578.733 80.4Z" fill="#F3F3F3"/>
<path d="M607.8 80.4C607.4 81.0667 605.4 81.3333 603.4 81.0667L599.667 80.4L600.067 98.5333C600.467 115.467 600.6 116.667 603.133 116.667C605.267 116.667 605.667 115.733 605.667 110.8V105.067L612.2 105.733C621.267 106.533 624.333 103.467 624.333 93.3333C624.333 87.2 623.8 85.3333 621 82.6667C617.8 79.3333 609.4 78 607.8 80.4ZM619 85.8667C621.133 90 620.6 97.4667 617.933 100.667C615.8 103.2 614.733 103.6 610.6 102.8L605.667 101.867V93.4667C605.667 88.9333 606.067 84.6667 606.6 84.2667C607 83.7333 609.667 83.3333 612.467 83.3333C616.2 83.3333 617.933 84 619 85.8667Z" fill="#F3F3F3"/>
<path d="M656.467 80.5333C655.267 81.3333 655.133 82 656.2 82.5333C657.133 83.0667 657.667 88 657.667 94.8C657.667 103.867 658.067 106 659.667 106C661.267 106 661.667 103.867 661.667 94.6667V83.3333H668.333C674.333 83.3333 675 83.6 675.133 86.2667C675.267 88 675.533 92 675.667 95.3333C675.933 98.6667 676.067 102.4 676.2 103.6C676.333 104.933 677 106 677.667 106C678.467 106 679 100.933 679 93.3333V80.6667L672.733 80.5333C669.133 80.4 664.6 80.1333 662.333 79.8667C660.2 79.6 657.533 79.8667 656.467 80.5333Z" fill="#F3F3F3"/>
<path d="M686.733 80.1333C686.467 80.2667 686.467 86.1333 686.733 93.2C687.133 103.2 687.533 106 689.133 106C690.6 106 691 103.6 691 94.6667V83.3333H698.333H705.667V94.6667C705.667 103.867 706.067 106 707.667 106C709.267 106 709.667 103.733 709.667 93.3333V80.6667L702.333 80.4C698.333 80.2667 693.267 80.1333 691 80C688.867 79.8667 686.867 79.8667 686.733 80.1333Z" fill="#F3F3F3"/>
<path d="M720.733 80.2667C717 81.7333 719.4 83.2 726.067 83.6C732.733 84 733 84.1333 733.4 88C733.8 92 733.667 92.1333 728.333 91.6C718.733 90.6667 712.6 98.1333 718.467 103.867C720.867 106.4 731 106.8 733.4 104.4C734.6 103.2 735 103.2 735 104.4C735 105.333 736.2 106 737.667 106C740.467 106 741.267 104 739 102.667C738.333 102.267 737.667 98 737.667 93.2C737.667 82.8 735.133 79.3333 727.4 79.4667C724.6 79.4667 721.533 79.8667 720.733 80.2667ZM731.533 94.8C734.067 95.7333 734.333 99.4667 732.067 101.733C728.867 104.933 720.333 103.2 720.333 99.4667C720.333 94.9333 725.8 92.6667 731.533 94.8Z" fill="#F3F3F3"/>
<path d="M768.333 85.4667L761.667 91.7333V86.1333C761.667 81.8667 761.133 80.6667 759.4 80.6667C757.267 80.6667 757 82 757.4 93.3333C757.8 103.2 758.2 106 759.8 106C761 106 761.667 104.533 761.667 101.467C761.667 94.5333 764.2 94.1333 769.533 100.533C773.8 105.467 777.8 107.733 777.667 104.933C777.533 104.4 775.133 101.333 772.333 98L767 92L772.467 86.5333C780.2 78.6667 776.6 77.7333 768.333 85.4667Z" fill="#F3F3F3"/>
<path d="M787.667 80.5333C782.067 82.9333 779.533 90.4 781.667 98C783.4 103.867 786.467 105.867 793.933 106C799.133 106 800.6 105.467 802.867 102.533C806.467 98 806.733 87.6 803.267 83.3333C800.733 80.1333 792.067 78.6667 787.667 80.5333ZM800.333 85.8667C802.333 89.7333 801.933 96.9333 799.533 100.533C797.667 103.067 796.467 103.467 792.6 102.8C790.067 102.4 787.4 101.333 786.733 100.4C785.133 97.7333 785.4 86.8 787.267 84.9333C789.933 82.2667 798.733 82.9333 800.333 85.8667Z" fill="#F3F3F3"/>
<path d="M834.733 80.6667C833.533 81.4667 831 84.8 829 88.1333L825.4 94.2667L821.267 87.4667C818.467 82.9333 816.2 80.6667 814.333 80.6667C811.8 80.6667 811.667 81.3333 812.067 93.3333C812.467 103.067 813 106 814.333 106C815.8 106 816.333 103.467 816.6 96.4L817 86.8L820.733 92.4C822.733 95.4667 825 98 825.667 98C826.333 98 828.333 95.6 829.933 92.6667C831.667 89.7333 833.4 87.3333 834.067 87.3333C834.6 87.3333 835 91.4667 835 96.6667C835 102 835.533 106 836.333 106C837.133 106 837.667 100.667 837.667 92.6667C837.667 85.3333 837.533 79.3333 837.4 79.3333C837.133 79.3333 836.067 80 834.733 80.6667Z" fill="#F3F3F3"/>
<path d="M845.533 79.8667C845.267 80.1333 845.133 86.1333 845.4 93.2C845.8 103.2 846.2 106 847.8 106C849.267 106 849.667 103.6 849.667 94.6667V83.3333H857H864.333V94.6667C864.333 103.867 864.733 106 866.333 106C867.933 106 868.333 103.733 868.333 93.4667V81.0667L863.4 80.1333C857.667 79.2 846.333 79.0667 845.533 79.8667Z" fill="#F3F3F3"/>
<path d="M879.4 80.2667C875.667 81.7333 878.067 83.2 884.733 83.6C891.4 84 891.667 84.1333 892.067 88C892.467 92 892.333 92.1333 887 91.6C877.4 90.6667 871.267 98.1333 877.133 103.867C879.533 106.267 890.333 106.8 891.8 104.533C892.467 103.467 893 103.6 893.667 104.667C894.333 105.733 895.667 106 897.133 105.333C898.867 104.667 899.133 104.133 898.067 103.733C896.867 103.333 896.333 100 896.333 94C896.333 86.2667 895.933 84.4 893.4 82C890.6 79.4667 883.533 78.5333 879.4 80.2667ZM890.2 94.8C892.733 95.7333 893 99.4667 890.733 101.733C889.8 102.667 887.133 103.333 884.867 103.333C881.667 103.333 880.333 102.667 879.667 100.667C878.067 95.4667 883.8 92.4 890.2 94.8Z" fill="#F3F3F3"/>
<path d="M905 80.1333C904.2 80.5333 903.8 85.7333 904.067 93.3333C904.467 103.2 904.867 106 906.467 106C907.8 106 908.333 104.267 908.333 100V94H915.667H923V100C923 104.533 923.533 106 925 106C926.733 106 927 104 926.733 93.3333C926.333 80.4 924.067 75.3333 923.267 85.6L922.867 91.3333H915.533H908.333V86.1333C908.333 80.8 907.533 79.3333 905 80.1333Z" fill="#F3F3F3"/>
<path d="M628.333 81.7333C628.333 82.4 630.467 87.7333 633 93.6C635.533 99.6 637.667 105.467 637.667 106.933C637.533 110.267 634.467 114 631.8 114C630.6 114 629.667 114.933 629.667 116.133C629.667 118.667 634.467 117.6 637.933 114.133C639.933 112.267 651 84.8 651 81.8667C651 81.2 650.2 80.6667 649.267 80.6667C648.333 80.6667 646.067 84.5333 644.467 89.3333C642.733 94.1333 640.867 98.2667 640.333 98.6667C639.8 98.9333 637.8 95.0667 635.8 90C633.667 84.5333 631.267 80.6667 630.2 80.6667C629.133 80.6667 628.333 81.2 628.333 81.7333Z" fill="#F3F3F3"/>
<path d="M934.733 93.3333C935.133 102.667 935.667 106 937 106C937.933 106 942.067 101.333 946.2 95.7333L953.667 85.3333V95.7333C953.667 104 954.067 106 955.667 106C957.267 106 957.667 103.733 957.667 93.3333C957.667 82 957.4 80.6667 955.267 80.6667C953.667 80.6667 950.067 84.4 945.933 90.2667L939 99.7333V90.2667C939 82 938.733 80.6667 936.733 80.6667C934.6 80.6667 934.333 82 934.733 93.3333Z" fill="#F3F3F3"/>
<path d="M964.867 82.6667C965.267 83.8667 965.667 89.6 965.667 95.4667C965.667 103.467 966.067 106 967.4 106C968.467 106 972.2 101.867 975.8 96.6667C979.4 91.6 982.733 87.3333 983.4 87.3333C983.933 87.3333 984.333 91.6 984.333 96.8C984.333 103.733 984.733 106.133 986.067 105.6C987.133 105.333 987.667 101.6 987.667 93.2C987.667 77.7333 985.8 77.0667 976.867 89.3333L970.333 98.2667L969.667 89.8667C969.133 82.9333 968.6 81.3333 966.467 80.9333C964.6 80.5333 964.2 80.9333 964.867 82.6667Z" fill="#F3F3F3"/>
<rect x="48" y="33" width="108" height="111" rx="7" fill="#FFCC01"/>
<path d="M88.3 74.2842L88.3061 73.7904H88.8H103.586H118.371H118.865L118.871 74.2842L119.128 94.9877L119.129 94.9908L119.505 115.338L127.135 115.659L127.136 115.659L134.586 115.978V90.2186C134.586 77.8613 134.553 71.3203 134.218 67.5942C134.051 65.732 133.811 64.6211 133.486 63.8549C133.171 63.1114 132.765 62.6648 132.183 62.1499C131.602 61.6354 131.086 61.2658 130.273 60.9796C129.441 60.6867 128.275 60.4738 126.384 60.3256C122.6 60.0289 116.068 60 103.843 60C90.9699 60 84.4443 60.0006 80.7925 60.3251C78.9701 60.4871 77.9142 60.7265 77.1601 61.061C76.4176 61.3903 75.9332 61.8255 75.2622 62.4758C74.5962 63.1214 74.1381 63.6162 73.7868 64.3733C73.43 65.1425 73.1678 66.2185 72.985 68.0402C72.6185 71.6918 72.5857 78.1437 72.5857 90.6737V115.978L80.1643 115.659L80.1646 115.659L87.6659 115.338L88.0429 94.9908L88.0429 94.9877L88.3 74.2842Z" fill="black" stroke="black"/>
</svg>
